<svg width="24" height="21" viewBox="0 0 24 21" fill="none" xmlns="http://www.w3.org/2000/svg">
<path d="M8.52648 19.0909C7.79877 19.0909 7.92961 18.7951 7.66793 18.0633L5.53857 10.6374L18.7574 1.90907L20.3078 2.34321L19.0191 6.05522L8.52648 19.0909Z" fill="#C8DAEA"/>
<path d="M9.23096 19.0909C9.89135 19.0909 10.1762 18.842 10.5496 18.5574C11.1214 18.1142 18.4617 12.3426 18.4617 12.3426L13.9571 11.4545L9.78164 13.5852L9.23307 18.9119V19.0909H9.23096Z" fill="#A9C9DD"/>
<path d="M9.39257 13.8636L18.2928 20.7159C19.3043 21.2926 20.0404 21.0033 20.2963 19.7375L23.9185 1.92597C24.2857 0.370892 23.3484 -0.320049 22.374 0.140579L1.11723 8.70089C-0.335539 9.31445 -0.317888 10.1602 0.859512 10.525L6.32109 12.3104L18.953 4.00064C19.5408 3.6174 20.0933 3.82745 19.652 4.24938L9.39257 13.8636Z" fill="url(#paint0_linear)"/>
<defs>
<linearGradient id="paint0_linear" x1="14.7264" y1="9.89952" x2="19.6119" y2="17.3884" gradientUnits="userSpaceOnUse">
<stop stop-color="#EFF7FC"/>
<stop offset="1" stop-color="white"/>
</linearGradient>
</defs>
</svg>
