<svg width="26" height="20" viewBox="0 0 26 20" fill="none" xmlns="http://www.w3.org/2000/svg">
<path d="M26 2.36604C25.043 2.76831 24.0163 3.03854 22.9361 3.16137C24.0391 2.53646 24.8825 1.54614 25.2815 0.368494C24.2337 0.956548 23.0886 1.3711 21.8932 1.59374C20.92 0.612621 19.5349 0 18.0005 0C15.0566 0 12.6675 2.26009 12.6675 5.04836C12.6675 5.44296 12.7145 5.82834 12.8054 6.19991C8.37255 5.98956 4.44255 3.97973 1.81173 0.924305C1.35271 1.67051 1.08996 2.538 1.08996 3.46231C1.08996 5.21419 2.03231 6.75879 3.46288 7.66467C2.61622 7.6401 1.7874 7.42361 1.04616 7.03362V7.09811C1.04616 9.54399 2.88384 11.5845 5.32489 12.0482C4.87723 12.1649 4.40686 12.2248 3.92027 12.2248C3.57642 12.2248 3.2423 12.1941 2.91628 12.1357C3.59426 14.1409 5.56494 15.6011 7.89732 15.641C6.07099 16.9952 3.77105 17.8029 1.27324 17.8029C0.843419 17.8029 0.418465 17.7783 0 17.7307C2.35995 19.1632 5.16432 20 8.17629 20C17.9859 20 23.3513 12.3062 23.3513 5.63488C23.3513 5.41532 23.3465 5.19883 23.3351 4.98234C24.3797 4.26685 25.2831 3.38093 26 2.36604Z" fill="white"/>
</svg>
